<svg id="Layer_1" data-name="Layer 1" xmlns="http://www.w3.org/2000/svg" xmlns:xlink="http://www.w3.org/1999/xlink" viewBox="0 0 434.32 426.04"><defs><style>.cls-1,.cls-11,.cls-3,.cls-5,.cls-7{fill:none;}.cls-2{clip-path:url(#clip-path);}.cls-3{stroke:#fffad6;stroke-width:16.51px;}.cls-11,.cls-3,.cls-5,.cls-6,.cls-7,.cls-8,.cls-9{stroke-miterlimit:10;}.cls-4{clip-path:url(#clip-path-2);}.cls-11,.cls-5,.cls-6,.cls-7,.cls-8{stroke:#fff;}.cls-6,.cls-8,.cls-9{fill:#fff;}.cls-7,.cls-8,.cls-9{stroke-width:2.36px;}.cls-9{stroke:#fdfdfe;}.cls-10{clip-path:url(#clip-path-4);}.cls-11{stroke-width:16px;}</style><clipPath id="clip-path"><rect class="cls-1" x="-75.18" y="-137.44" width="594.07" height="709.7"/></clipPath><clipPath id="clip-path-2"><rect class="cls-1" x="114.54" y="99.92" width="235.58" height="206.53"/></clipPath><clipPath id="clip-path-4"><rect class="cls-1" x="91.76" y="78.22" width="258.36" height="227.47"/></clipPath></defs><title>Artboard 2</title><g class="cls-2"><path class="cls-3" d="M21.56,212.45c0,110.11,89.26,199.37,199.38,199.37s199.37-89.26,199.37-199.37S331.05,13.06,220.94,13.06,21.56,102.33,21.56,212.45Z"/><g class="cls-4"><g class="cls-4"><polygon class="cls-1" points="232.84 99.92 235.2 104.12 119.3 306.44 114.54 306.44 232.84 99.92"/><polygon class="cls-1" points="238.41 109.78 240.77 113.93 130.53 306.44 125.76 306.44 238.41 109.78"/><polygon class="cls-1" points="244.03 119.64 246.38 123.79 141.75 306.44 136.99 306.44 244.03 119.64"/><polygon class="cls-5" points="249.59 129.45 251.99 133.65 152.98 306.44 148.22 306.44 249.59 129.45"/><polygon class="cls-6" points="260.77 149.17 350.12 306.44 274.45 306.44 222.8 215.5 260.77 149.17"/></g></g><path class="cls-7" d="M220.91,14.39c-110.1,0-199.35,89.26-199.35,199.36s89.25,199.4,199.35,199.4,199.4-89.3,199.4-199.4S331,14.39,220.91,14.39Z"/><polygon class="cls-8" points="91.75 306.44 220.91 78.97 224.02 84.4 96.85 306.44 91.75 306.44"/><polygon class="cls-9" points="103.31 306.44 227.23 90.11 229.59 94.26 108.07 306.44 103.31 306.44"/><polygon class="cls-9" points="114.54 306.44 232.84 99.92 235.2 104.12 119.3 306.44 114.54 306.44"/><polygon class="cls-9" points="125.76 306.44 238.41 109.78 240.77 113.93 130.53 306.44 125.76 306.44"/><polygon class="cls-8" points="136.99 306.44 244.03 119.64 246.38 123.79 141.75 306.44 136.99 306.44"/><polygon class="cls-9" points="148.22 306.44 249.59 129.45 251.99 133.65 152.98 306.44 148.22 306.44"/><polygon class="cls-8" points="164.21 306.44 159.49 306.44 255.21 139.31 257.56 143.51 164.21 306.44"/><polygon class="cls-7" points="274.45 306.44 222.8 215.5 260.77 149.17 350.12 306.44 274.45 306.44"/><path class="cls-11" d="M220.91,13.64c-110.1,0-199.35,89.3-199.35,199.41S110.81,412.4,220.91,412.4s199.4-89.25,199.4-199.35S331.06,13.64,220.91,13.64Z"/></g></svg>