<svg xmlns="http://www.w3.org/2000/svg" viewBox="0 0 1646 266"><defs><style>.cls-1{fill:#00b3f0;stroke:#1b5eac;}.cls-1,.cls-2{stroke-miterlimit:10;}.cls-2{fill:#fff;stroke:#fff;}</style></defs><title>Artboard 1</title><g id="Layer_1" data-name="Layer 1"><rect class="cls-1" width="1646" height="266"/><path class="cls-2" d="M108,88.34,99.65,70.4s-.4,10.32-2.86,17.67L45.06,225.84C43.15,231,40.7,232.11,32,232.11H22.46c-4.9,0-6.54-2.46-4.9-7.08L88.36,44.24c1.35-4.09,4.35-6,9-6h10.89q6.94,0,9,5.72L188,225c1.64,4.62,0,7.08-4.9,7.08H172.49c-8.71,0-11.16-1.08-13.07-6.27Z"/><path class="cls-2" d="M264.3,38.79c-5.45,0-7.07,1.9-7.07,7.09V56.21c0,5.18,1.62,7.08,7.07,7.08h51.46V225c0,5.18,1.64,7.08,7.08,7.08h12c5.44,0,7.07-1.9,7.07-7.08V63.29h51.47c5.17,0,7.08-1.9,7.08-7.08V45.88c0-5.19-1.91-7.09-7.08-7.09Z"/><path class="cls-2" d="M535,45.88c0-5.19-1.63-7.09-7.08-7.09h-12c-5.44,0-7.08,1.9-7.08,7.09V166c0,43.56,26.14,70.24,74.34,70.24,48.74,0,74.6-26.68,74.6-70.24V45.88c0-5.19-1.9-7.09-7.08-7.09h-12c-5.45,0-7.35,1.9-7.35,7.09V166.21c0,28.6-16.61,45.47-48.19,45.47S535,194.81,535,166.21Z"/><path class="cls-2" d="M789.64,38.79c-5.17,0-7.07,1.9-7.07,7.09V225c0,5.18,1.9,7.08,7.07,7.08h12c5.44,0,7.36-1.9,7.36-7.08V154.51h29.12c19.88,0,28,5.18,35.95,21.51l24.77,49.82c2.45,5.19,5.18,6.27,14.16,6.27h12c5.18,0,6.26-2.46,3.82-7.35l-30.23-58.55c-4.08-7.34-8.71-12.52-13.61-15.24,25.31-5.72,40-25,40-54.18,0-36.77-22.05-58-58.81-58Zm107.83,58c0,20.95-12.25,33.21-33.76,33.21H809V63.29h54.72c21.51,0,33.76,12,33.76,33.5"/><path class="cls-2" d="M1044.56,225c0,5.18,1.9,7.08,7.08,7.08h12c5.45,0,7.35-1.9,7.35-7.08V45.88c0-5.19-1.9-7.09-7.35-7.09h-12c-5.18,0-7.08,1.9-7.08,7.09Z"/><path class="cls-2" d="M1589.76,38.79c-5.44,0-7.08,1.9-7.08,7.09v98.56a310.05,310.05,0,0,0,2.17,32.94c1.37,12.52,2.19,19.06,2.19,19.61h-1.37c-.27-.55-3-6.27-8.16-16.88a225.6,225.6,0,0,0-15.25-26.68L1485.75,42.32c-1.37-2.44-3.82-3.53-7.08-3.53h-12c-5.18,0-7.08,1.9-7.08,7.09V225c0,5.18,1.9,7.08,7.08,7.08h11.16c5.45,0,7.35-1.9,7.35-7.08V124.29A298.56,298.56,0,0,0,1483,92.42q-2.44-18.36-2.45-18.78h1.36L1490.11,90A188,188,0,0,0,1504,115.58l77.6,113c1.63,2.46,4.08,3.54,7.35,3.54h12c5.17,0,7.08-1.9,7.08-7.08V45.88c0-5.19-1.91-7.09-7.08-7.09Z"/><path class="cls-2" d="M1270.83,88.34l-8.31-17.94s-.4,10.32-2.86,17.67l-51.73,137.77c-1.91,5.19-4.36,6.27-13.07,6.27h-9.53c-4.9,0-6.54-2.46-4.9-7.08l70.79-180.79c1.36-4.09,4.36-6,9-6h10.89q6.95,0,9,5.72L1350.88,225c1.64,4.62,0,7.08-4.9,7.08h-10.62c-8.72,0-11.16-1.08-13.07-6.27Z"/></g></svg>