<svg id="Layer_1" data-name="Layer 1" xmlns="http://www.w3.org/2000/svg" viewBox="0 0 3000 484.81"><defs><style>.cls-1{fill:#fff;stroke:#fff;stroke-miterlimit:10;}</style></defs><title>Artboard 1</title><g id="Layer_1-2" data-name="Layer 1"><path class="cls-1" d="M193.82,156.5l-15.48-33.26S177.6,142.37,173,156L77.13,411.44C73.59,421,69,423.06,52.91,423.06H35.23c-9.09,0-12.13-4.56-9.09-13.13L157.41,74.73c2.5-7.58,8.06-11.12,16.69-11.12h20.19q12.87,0,16.68,10.61L342.15,409.88c3,8.56,0,13.13-9.08,13.13H313.39c-16.15,0-20.69-2-24.23-11.63Z"/><path class="cls-1" d="M483.62,64.63c-10.11,0-13.11,3.52-13.11,13.15V96.93c0,9.6,3,13.13,13.11,13.13H579V409.88c0,9.6,3,13.13,13.12,13.13H614.4c10.09,0,13.11-3.53,13.11-13.13V110.06h95.43c9.59,0,13.13-3.53,13.13-13.13V77.78c0-9.63-3.54-13.15-13.13-13.15Z"/><path class="cls-1" d="M985.52,77.78c0-9.63-3-13.15-13.13-13.15H950.14c-10.09,0-13.13,3.52-13.13,13.15V300.49c0,80.76,48.47,130.23,137.84,130.23,90.36,0,138.31-49.47,138.31-130.23V77.78c0-9.63-3.52-13.15-13.13-13.15h-22.25c-10.1,0-13.62,3.52-13.62,13.15v223.1c0,53-30.8,84.3-89.35,84.3s-89.29-31.28-89.29-84.3Z"/><path class="cls-1" d="M1457.64,64.63c-9.59,0-13.11,3.52-13.11,13.15v332.1c0,9.6,3.52,13.13,13.11,13.13h22.25c10.08,0,13.64-3.53,13.64-13.13V279.18h54c36.85,0,51.91,9.61,66.65,39.89l45.92,92.37c4.55,9.62,9.61,11.62,26.26,11.62h22.25c9.6,0,11.6-4.56,7.08-13.63l-56-108.55c-7.56-13.61-16.15-23.22-25.23-28.26,46.92-10.6,74.16-46.35,74.16-100.45,0-68.18-40.88-107.54-109-107.54Zm199.92,107.54c0,38.84-22.71,61.57-62.59,61.57H1493.53V110.06H1595c39.88,0,62.59,22.24,62.59,62.11"/><path class="cls-1" d="M1930.28,409.88c0,9.6,3.52,13.13,13.13,13.13h22.25c10.1,0,13.62-3.53,13.62-13.13V77.78c0-9.63-3.52-13.15-13.62-13.15h-22.25c-9.61,0-13.13,3.52-13.13,13.15Z"/><path class="cls-1" d="M2941.13,64.63c-10.09,0-13.13,3.52-13.13,13.15V260.51a577.25,577.25,0,0,0,4,61.08c2.54,23.21,4.06,35.34,4.06,36.36h-2.54c-.5-1-5.56-11.63-15.13-31.3a418.53,418.53,0,0,0-28.27-49.47l-141.86-206c-2.54-4.53-7.08-6.55-13.12-6.55h-22.25c-9.61,0-13.13,3.52-13.13,13.15v332.1c0,9.6,3.52,13.13,13.13,13.13h20.69c10.1,0,13.63-3.53,13.63-13.13V223.15a553.37,553.37,0,0,0-4.05-59.09q-4.51-34-4.54-34.82h2.52l15.21,30.34A347,347,0,0,0,2782.12,207L2926,416.52c3,4.56,7.56,6.56,13.62,6.56h22.25c9.59,0,13.13-3.52,13.13-13.13V77.78c0-9.63-3.54-13.15-13.13-13.15Z"/><path class="cls-1" d="M2349.8,156.5l-15.4-33.26s-.75,19.13-5.31,32.76l-95.91,255.44c-3.54,9.62-8.08,11.62-24.23,11.62h-17.67c-9.08,0-12.13-4.56-9.08-13.13l131.25-335.2c2.52-7.58,8.08-11.12,16.68-11.12h20.19q12.88,0,16.69,10.61l131.21,335.66c3,8.56,0,13.13-9.08,13.13h-19.69c-16.17,0-20.69-2-24.23-11.63Z"/></g></svg>