<svg id="Layer_1" data-name="Layer 1" xmlns="http://www.w3.org/2000/svg" xmlns:xlink="http://www.w3.org/1999/xlink" viewBox="0 0 3450 440"><defs><style>.cls-1,.cls-11,.cls-4,.cls-6,.cls-7{fill:none;}.cls-2,.cls-8,.cls-9{fill:#fff;}.cls-11,.cls-2,.cls-6,.cls-7,.cls-8{stroke:#fff;}.cls-11,.cls-2,.cls-4,.cls-6,.cls-7,.cls-8,.cls-9{stroke-miterlimit:10;}.cls-3{clip-path:url(#clip-path);}.cls-4{stroke:#fffad6;stroke-width:16.51px;}.cls-5{clip-path:url(#clip-path-2);}.cls-7,.cls-8,.cls-9{stroke-width:2.36px;}.cls-9{stroke:#fcfdff;}.cls-10{clip-path:url(#clip-path-4);}.cls-11{stroke-width:16px;}</style><clipPath id="clip-path"><rect class="cls-1" x="-73.57" y="-129.31" width="594.07" height="709.7"/></clipPath><clipPath id="clip-path-2"><rect class="cls-1" x="116.14" y="108.05" width="235.58" height="206.53"/></clipPath><clipPath id="clip-path-4"><rect class="cls-1" x="93.37" y="86.35" width="258.36" height="227.47"/></clipPath></defs><title>Artboard 1</title><g id="Layer_1-2" data-name="Layer 1"><path class="cls-2" d="M668.82,122.5,653.34,89.24S652.6,108.37,648,122L552.13,377.44c-3.54,9.56-8.09,11.62-24.22,11.62H510.23c-9.09,0-12.13-4.56-9.09-13.13L632.41,40.73c2.5-7.58,8.06-11.12,16.69-11.12h20.19q12.87,0,16.68,10.61L817.15,375.88c3,8.56,0,13.13-9.08,13.13H788.39c-16.15,0-20.69-2-24.23-11.63Z"/><path class="cls-2" d="M958.62,30.63c-10.11,0-13.11,3.52-13.11,13.15V62.93c0,9.6,3,13.13,13.11,13.13H1054V375.88c0,9.6,3,13.13,13.12,13.13h22.25c10.09,0,13.11-3.53,13.11-13.13V76.06h95.43c9.59,0,13.13-3.53,13.13-13.13V43.78c0-9.63-3.54-13.15-13.13-13.15Z"/><path class="cls-2" d="M1460.52,43.78c0-9.63-3-13.15-13.13-13.15h-22.25c-10.09,0-13.13,3.52-13.13,13.15V266.49c0,80.76,48.47,130.23,137.84,130.23,90.36,0,138.31-49.47,138.31-130.23V43.78c0-9.63-3.52-13.15-13.13-13.15h-22.25c-10.1,0-13.62,3.52-13.62,13.15v223.1c0,53-30.8,84.3-89.35,84.3s-89.29-31.28-89.29-84.3Z"/><path class="cls-2" d="M1932.64,30.63c-9.59,0-13.11,3.52-13.11,13.15v332.1c0,9.6,3.52,13.13,13.11,13.13h22.25c10.08,0,13.64-3.53,13.64-13.13V245.18h54c36.85,0,51.91,9.61,66.65,39.89l45.92,92.37c4.55,9.62,9.61,11.62,26.26,11.62h22.25c9.6,0,11.6-4.56,7.08-13.63l-56.05-108.55c-7.56-13.61-16.15-23.22-25.23-28.26,46.92-10.6,74.16-46.35,74.16-100.45,0-68.18-40.88-107.54-109-107.54Zm199.92,107.54c0,38.84-22.71,61.57-62.59,61.57H1968.53V76.06H2070c39.88,0,62.59,22.24,62.59,62.11"/><path class="cls-2" d="M2405.28,375.88c0,9.6,3.52,13.13,13.13,13.13h22.25c10.1,0,13.62-3.53,13.62-13.13V43.78c0-9.63-3.52-13.15-13.62-13.15h-22.25c-9.61,0-13.13,3.52-13.13,13.15Z"/><path class="cls-2" d="M3416.13,30.63c-10.09,0-13.13,3.52-13.13,13.15V226.51a577.25,577.25,0,0,0,4,61.08c2.54,23.21,4.06,35.34,4.06,36.36h-2.54c-.5-1-5.56-11.63-15.13-31.3a418.53,418.53,0,0,0-28.27-49.47l-141.86-206c-2.54-4.53-7.08-6.55-13.12-6.55h-22.25c-9.61,0-13.13,3.52-13.13,13.15v332.1c0,9.6,3.52,13.13,13.13,13.13h20.69c10.1,0,13.63-3.53,13.63-13.13V189.15a553.37,553.37,0,0,0-4.05-59.09q-4.51-34-4.54-34.82h2.52l15.21,30.34A347,347,0,0,0,3257.12,173L3401,382.52c3,4.56,7.56,6.56,13.62,6.56h22.25c9.59,0,13.13-3.52,13.13-13.13V43.78c0-9.63-3.54-13.15-13.13-13.15Z"/><path class="cls-2" d="M2824.8,122.5l-15.4-33.26s-.75,19.13-5.31,32.76l-95.91,255.44c-3.54,9.62-8.08,11.62-24.23,11.62h-17.67c-9.08,0-12.13-4.56-9.08-13.13l131.25-335.2c2.52-7.58,8.08-11.12,16.68-11.12h20.19q12.88,0,16.69,10.61l131.21,335.66c3,8.56,0,13.13-9.08,13.13h-19.69c-16.17,0-20.69-2-24.23-11.63Z"/></g><g class="cls-3"><path class="cls-4" d="M23.17,220.58C23.17,330.69,112.43,420,222.55,420s199.37-89.26,199.37-199.37S332.66,21.19,222.55,21.19,23.17,110.46,23.17,220.58Z"/><g class="cls-5"><g class="cls-5"><polygon class="cls-1" points="234.46 108.05 236.81 112.25 120.91 314.57 116.14 314.57 234.46 108.05"/><polygon class="cls-1" points="240.02 117.91 242.38 122.06 132.14 314.57 127.37 314.57 240.02 117.91"/><polygon class="cls-1" points="245.63 127.77 247.99 131.92 143.36 314.57 138.6 314.57 245.63 127.77"/><polygon class="cls-6" points="251.2 137.58 253.6 141.78 154.59 314.57 149.83 314.57 251.2 137.58"/><polygon class="cls-2" points="262.38 157.3 351.72 314.57 276.06 314.57 224.41 223.63 262.38 157.3"/></g></g><path class="cls-7" d="M222.52,22.52c-110.1,0-199.35,89.26-199.35,199.36s89.25,199.4,199.35,199.4,199.4-89.3,199.4-199.4S332.62,22.52,222.52,22.52Z"/><polygon class="cls-8" points="93.36 314.57 222.52 87.11 225.63 92.53 98.45 314.57 93.36 314.57"/><polygon class="cls-9" points="104.92 314.57 228.84 98.24 231.2 102.39 109.68 314.57 104.92 314.57"/><polygon class="cls-9" points="116.14 314.57 234.46 108.05 236.81 112.25 120.91 314.57 116.14 314.57"/><polygon class="cls-9" points="127.37 314.57 240.02 117.91 242.38 122.06 132.14 314.57 127.37 314.57"/><polygon class="cls-8" points="138.6 314.57 245.63 127.77 247.99 131.92 143.36 314.57 138.6 314.57"/><polygon class="cls-9" points="149.83 314.57 251.2 137.58 253.6 141.78 154.59 314.57 149.83 314.57"/><polygon class="cls-8" points="165.82 314.57 161.1 314.57 256.81 147.44 259.17 151.64 165.82 314.57"/><polygon class="cls-7" points="276.06 314.57 224.41 223.63 262.38 157.3 351.72 314.57 276.06 314.57"/><path class="cls-11" d="M222.52,21.77c-110.1,0-199.35,89.3-199.35,199.41s89.25,199.35,199.35,199.35,199.4-89.25,199.4-199.35S332.67,21.77,222.52,21.77Z"/></g></svg>